<svg width="211" height="129" viewBox="0 0 211 129" fill="none" xmlns="http://www.w3.org/2000/svg">
<g clip-path="url(#clip0)">
<path d="M79.7896 81.0602C79.7021 80.9732 77.6258 78.8681 75.8658 73.8734C74.2512 69.2909 72.6219 61.2999 74.0298 49.2533C76.6971 26.4318 63.0193 11.8876 62.8806 11.7434L63.2854 11.3541C63.3206 11.3907 66.8373 15.0917 69.9662 21.589C74.1079 30.2046 75.7109 39.8236 74.5872 49.3186C71.9245 72.1011 80.1027 80.579 80.1856 80.6621L79.7896 81.0602Z" fill="#F2F2F2"/>
<path d="M58.6807 11.361C60.6952 11.361 62.3283 9.72605 62.3283 7.70928C62.3283 5.6925 60.6952 4.05759 58.6807 4.05759C56.6662 4.05759 55.0331 5.6925 55.0331 7.70928C55.0331 9.72605 56.6662 11.361 58.6807 11.361Z" fill="#F2F2F2"/>
<path d="M73.0509 21.7276C75.0654 21.7276 76.6985 20.0927 76.6985 18.0759C76.6985 16.0591 75.0654 14.4242 73.0509 14.4242C71.0364 14.4242 69.4033 16.0591 69.4033 18.0759C69.4033 20.0927 71.0364 21.7276 73.0509 21.7276Z" fill="#F2F2F2"/>
<path d="M67.5484 32.3254C69.5629 32.3254 71.196 30.6905 71.196 28.6738C71.196 26.657 69.5629 25.0221 67.5484 25.0221C65.5339 25.0221 63.9008 26.657 63.9008 28.6738C63.9008 30.6905 65.5339 32.3254 67.5484 32.3254Z" fill="#F2F2F2"/>
<path d="M78.613 37.4279C80.6275 37.4279 82.2606 35.793 82.2606 33.7762C82.2606 31.7595 80.6275 30.1245 78.613 30.1245C76.5985 30.1245 74.9654 31.7595 74.9654 33.7762C74.9654 35.793 76.5985 37.4279 78.613 37.4279Z" fill="#F2F2F2"/>
<path d="M69.4148 51.8206C71.4293 51.8206 73.0624 50.1857 73.0624 48.1689C73.0624 46.1522 71.4293 44.5172 69.4148 44.5172C67.4003 44.5172 65.7672 46.1522 65.7672 48.1689C65.7672 50.1857 67.4003 51.8206 69.4148 51.8206Z" fill="#F2F2F2"/>
<path d="M81.9622 80.6675C81.9622 80.6675 76.2889 72.8014 85.3222 63.6537L81.9622 80.6675Z" fill="#F2F2F2"/>
<path d="M77.5656 81.5743C77.5656 81.5743 73.6881 72.6825 61.2256 75.8131L77.5656 81.5743Z" fill="#F2F2F2"/>
<path d="M148.531 109.541C148.515 109.357 148.19 104.942 151.025 97.5418C153.626 90.7525 159.514 80.0653 172.793 67.7075C197.948 44.2966 196.459 14.4405 196.441 14.1414L197.28 14.0912C197.284 14.167 197.705 21.7995 194.973 32.2412C191.342 46.0803 183.847 58.5966 173.365 68.3234C148.252 91.6945 149.354 109.297 149.368 109.472L148.531 109.541Z" fill="#F2F2F2"/>
<path d="M195.566 10.9305C198.58 10.9305 201.024 8.48385 201.024 5.46582C201.024 2.44779 198.58 0.00119019 195.566 0.00119019C192.551 0.00119019 190.107 2.44779 190.107 5.46582C190.107 8.48385 192.551 10.9305 195.566 10.9305Z" fill="#F2F2F2"/>
<path d="M201.892 36.6993C204.907 36.6993 207.35 34.2527 207.35 31.2347C207.35 28.2167 204.907 25.7701 201.892 25.7701C198.877 25.7701 196.433 28.2167 196.433 31.2347C196.433 34.2527 198.877 36.6993 201.892 36.6993Z" fill="#F2F2F2"/>
<path d="M185.352 43.4295C188.367 43.4295 190.811 40.9829 190.811 37.9649C190.811 34.9469 188.367 32.5003 185.352 32.5003C182.338 32.5003 179.894 34.9469 179.894 37.9649C179.894 40.9829 182.338 43.4295 185.352 43.4295Z" fill="#F2F2F2"/>
<path d="M193.014 59.9899C196.028 59.9899 198.472 57.5433 198.472 54.5253C198.472 51.5073 196.028 49.0607 193.014 49.0607C189.999 49.0607 187.555 51.5073 187.555 54.5253C187.555 57.5433 189.999 59.9899 193.014 59.9899Z" fill="#F2F2F2"/>
<path d="M168.586 67.4543C171.6 67.4543 174.044 65.0077 174.044 61.9896C174.044 58.9716 171.6 56.525 168.586 56.525C165.571 56.525 163.127 58.9716 163.127 61.9896C163.127 65.0077 165.571 67.4543 168.586 67.4543Z" fill="#F2F2F2"/>
<path d="M151.387 111.204C151.387 111.204 152.546 96.7314 171.703 95.0829L151.387 111.204Z" fill="#F2F2F2"/>
<path d="M145.499 107.967C145.499 107.967 149.698 94.0698 132.465 85.532L145.499 107.967Z" fill="#F2F2F2"/>
<path d="M26.3576 95.7025C24.538 102.436 18.3056 106.607 18.3056 106.607C18.3056 106.607 15.0232 99.8595 16.8428 93.1257C18.6624 86.3919 24.8949 82.2215 24.8949 82.2215C24.8949 82.2215 28.1772 88.9687 26.3576 95.7025Z" fill="#09CEF9"/>
<path d="M9.80455 95.7025C11.6241 102.436 17.8566 106.607 17.8566 106.607C17.8566 106.607 21.1389 99.8595 19.3194 93.1257C17.4998 86.3919 11.2673 82.2215 11.2673 82.2215C11.2673 82.2215 7.98497 88.9687 9.80455 95.7025Z" fill="#09CEF9"/>
<path d="M12.4783 94.2554C17.4712 99.1213 18.0811 106.601 18.0811 106.601C18.0811 106.601 10.5958 106.192 5.6028 101.326C0.609852 96.4603 0 88.9803 0 88.9803C0 88.9803 7.48532 89.3895 12.4783 94.2554Z" fill="#3F3D56"/>
<path d="M23.6839 94.2554C18.691 99.1213 18.0811 106.601 18.0811 106.601C18.0811 106.601 25.5664 106.192 30.5594 101.326C35.5523 96.4603 36.1622 88.9803 36.1622 88.9803C36.1622 88.9803 28.6769 89.3895 23.6839 94.2554Z" fill="#3F3D56"/>
<path d="M211 121.076H1.84424V121.563H211V121.076Z" fill="#2F2E41"/>
<path d="M112.24 46.2892C112.24 46.2892 110.069 44.116 105.076 44.5507C105.076 44.5507 56.8851 39.5523 55.7997 48.4624C54.7144 57.3726 54.4973 62.5882 57.3193 64.5441C57.3193 64.5441 66.5451 72.911 61.7694 80.2998L59.1644 84.6462L161.408 83.777C161.408 83.777 162.493 67.9126 165.749 64.8701C169.005 61.8276 170.091 45.7459 165.749 45.3113C161.408 44.8767 111.046 42.4861 112.24 46.2892Z" fill="#3F3D56"/>
<path d="M58.2961 64.0008C58.2961 64.0008 27.6882 71.1724 39.8445 84.6462L41.7982 86.6021L40.9299 116.592H182.03L183.55 87.2541L185.286 83.7769C185.286 83.7769 196.101 70.792 164.861 66.0925L159.237 80.2998L64.1572 79.6478C64.1572 79.6478 63.5059 63.5661 58.2961 64.0008Z" fill="#3F3D56"/>
<path d="M52.435 114.636H43.5349V121.373H52.435V114.636Z" fill="#3F3D56"/>
<path d="M180.51 114.636H171.61V121.373H180.51V114.636Z" fill="#3F3D56"/>
<path d="M110.589 80.4085C110.589 80.4085 89.3381 65.3048 62.8547 80.5172L55.0399 91.8178L56.5595 101.163C56.5595 101.163 111.48 102.032 112.131 96.1642C112.782 90.2966 110.589 80.4085 110.589 80.4085Z" fill="#3F3D56"/>
<path d="M160.322 80.5172C160.322 80.5172 123.039 68.5646 111.832 80.5172L113.217 97.6855C113.217 97.6855 167.703 101.815 168.571 98.9894C169.44 96.1642 169.874 91.1659 169.874 91.1659L160.322 80.5172Z" fill="#3F3D56"/>
<path opacity="0.1" d="M160.322 80.5172C160.322 80.5172 123.039 68.5646 111.832 80.5172L111.863 80.9001C111.827 80.7224 111.806 80.6258 111.806 80.6258C111.806 80.6258 89.3381 65.3047 62.8547 80.5172L55.0399 91.8178L56.5595 101.163C56.5595 101.163 109.74 102.295 113.157 96.9412L113.217 97.6855C113.217 97.6855 167.703 101.815 168.571 98.9894C169.44 96.1642 169.874 91.1659 169.874 91.1659L160.322 80.5172Z" fill="black"/>
<path d="M59.1644 50.527C69.715 50.3023 79.7171 48.9618 88.904 45.9632C89.1274 56.5425 90.6468 66.4368 94.1138 75.3015C83.8429 73.4329 73.4187 75.282 62.8547 80.5171C64.7521 70.9537 63.1117 60.9002 59.1644 50.527Z" fill="#09CEF9"/>
<path d="M167.052 52.2655C156.501 52.0408 146.499 50.7003 137.312 47.7018C137.089 58.2811 135.569 68.1753 132.102 77.04C142.373 75.1715 152.797 77.0205 163.361 82.2557C161.464 72.6923 163.104 62.6387 167.052 52.2655Z" fill="#09CEF9"/>
<path d="M99.2959 49.4892C99.9104 49.0513 100.589 48.7108 101.307 48.4796C105.86 46.7837 110.63 45.7441 115.475 45.3919C119.688 45.0929 124.254 45.4481 127.544 48.0988C128.056 48.4748 128.475 48.9633 128.769 49.5267C129.183 50.421 129.057 51.4606 128.923 52.4371C128.893 52.8159 128.798 53.1866 128.641 53.5327C128.199 54.3768 127.108 54.6724 126.161 54.5712C125.215 54.47 124.326 54.0689 123.392 53.883C122.814 53.7821 122.229 53.7225 121.643 53.7046L115.785 53.3872C112.143 53.1897 108.452 52.9956 104.879 53.7316C103.779 53.9295 102.716 54.2962 101.728 54.8186C100.912 55.2773 100.362 55.9355 99.6051 55.0883C98.2748 53.5998 97.5384 50.864 99.2959 49.4892Z" fill="#2F2E41"/>
<path d="M108.373 52.0825C108.373 52.0825 116.252 48.5466 119.24 52.6265C122.229 56.7063 117.61 55.0744 117.61 55.0744L112.448 56.7063L106.743 55.6183L108.373 52.0825Z" fill="#F2F2F2"/>
<path d="M108.781 49.4985C108.781 49.4985 109.867 54.6664 109.052 56.0263C108.237 57.3863 113.671 59.2902 113.671 59.2902L118.833 57.1143C118.833 57.1143 117.474 48.6826 118.833 47.0506L108.781 49.4985Z" fill="#FFB9B9"/>
<path opacity="0.1" d="M108.781 49.4985C108.781 49.4985 109.867 54.6664 109.052 56.0263C108.237 57.3863 113.671 59.2902 113.671 59.2902L118.833 57.1143C118.833 57.1143 117.474 48.6826 118.833 47.0506L108.781 49.4985Z" fill="black"/>
<path d="M103.69 111.638C104.467 113.13 104.971 114.746 105.485 116.348C105.493 116.402 105.511 116.453 105.54 116.499C105.569 116.544 105.607 116.583 105.652 116.613C105.697 116.643 105.747 116.663 105.801 116.672C105.854 116.681 105.908 116.679 105.96 116.665L110.793 116.66C111.389 116.659 112.19 116.467 112.183 115.87C112.179 115.451 111.751 115.189 111.432 114.917C110.547 114.161 110.317 112.915 109.951 111.81C109.238 109.682 107.866 107.836 106.033 106.543C105.786 106.349 105.501 106.208 105.196 106.129C104.89 106.084 104.578 106.101 104.278 106.179C103.43 106.35 100.262 106.936 100.86 108.171C101.118 108.703 102.073 109.257 102.473 109.754C102.94 110.34 103.347 110.971 103.69 111.638Z" fill="#575A89"/>
<path d="M120.494 106.027C120.324 106.385 120.134 106.734 119.926 107.072C119.226 108.228 118.4 109.307 117.748 110.491C117.341 111.229 116.999 112.027 116.954 112.869C116.909 113.711 117.205 114.607 117.876 115.117C118.578 115.65 119.54 115.675 120.411 115.551C121.283 115.426 122.15 115.176 123.028 115.242C122.732 113.565 124.145 112.089 124.499 110.422C124.598 109.954 124.613 109.469 124.746 109.01C124.889 108.589 125.072 108.184 125.293 107.799C125.996 106.427 126.494 104.959 126.768 103.441C126.802 103.257 122.473 103.227 122.067 103.315C120.799 103.589 120.985 104.975 120.494 106.027Z" fill="#575A89"/>
<path d="M87.1284 79.6754C85.8926 81.6115 86.1773 84.1773 87.0453 86.3043C87.9133 88.4313 89.2947 90.3116 90.2402 92.4052C90.843 93.74 91.2657 95.1552 91.9445 96.4528C92.785 98.0597 94.0122 99.476 94.5762 101.2C94.9357 102.299 95.0182 103.503 95.6006 104.501C95.9526 105.035 96.3544 105.534 96.8005 105.992C98.055 107.43 98.9968 109.115 99.5662 110.937C100.098 109.35 101.692 108.309 103.33 107.966C104.967 107.622 106.663 107.856 108.319 108.09C107.395 106.657 106.462 105.206 105.912 103.592C105.379 102.031 105.222 100.371 104.863 98.7609C104.127 95.4597 102.556 92.4148 101 89.4125L108.997 88.7774C110.303 88.6461 111.615 88.5973 112.927 88.6315C114.991 88.7289 117.013 89.2355 119.066 89.4696C121.12 89.7038 123.292 89.6425 125.122 88.681C121.623 93.707 119.8 99.7117 119.915 105.837C120.697 105.23 121.605 104.806 122.572 104.596C123.539 104.386 124.54 104.395 125.503 104.623C126.466 104.85 127.366 105.29 128.137 105.911C128.908 106.532 129.53 107.317 129.959 108.21C133.093 103.922 132.72 97.9528 135.204 93.2572C135.715 92.2917 136.341 91.3924 136.892 90.4494C137.982 88.5844 138.772 86.5624 139.558 84.5499C140.253 82.7711 140.953 80.7918 140.287 79.0021C140.01 78.3231 139.607 77.7028 139.099 77.1743C137.666 75.5927 135.672 74.4228 133.54 74.3741C130.266 74.2993 127.562 76.7283 124.691 78.3034C121.309 80.1586 117.363 80.8961 113.516 80.6234C109.572 80.3438 105.805 79.0513 102.048 77.913C100.168 77.3172 98.2572 76.8237 96.3241 76.4349C94.7127 76.1323 93.178 76.4675 91.59 76.88C89.8611 77.3292 88.1235 78.1165 87.1284 79.6754Z" fill="#2F2E41"/>
<path d="M121.278 44.3307C121.276 46.4943 120.417 48.5687 118.889 50.0986C117.361 51.6284 115.289 52.4887 113.128 52.4904C112.642 52.4913 112.157 52.4476 111.679 52.3599C110.154 52.0841 108.739 51.3786 107.6 50.3261C106.461 49.2736 105.645 47.9178 105.249 46.4177C104.852 44.9176 104.891 43.3353 105.361 41.8566C105.831 40.3779 106.713 39.064 107.902 38.069C109.091 37.0741 110.54 36.4393 112.077 36.2392C113.614 36.039 115.176 36.2819 116.58 36.9392C117.984 37.5965 119.172 38.641 120.004 39.9502C120.836 41.2594 121.278 42.779 121.278 44.3307Z" fill="#FFB9B9"/>
<path d="M108.373 52.0825C108.373 52.0825 109.867 52.7624 110.411 53.3064C110.954 53.8504 112.584 56.8423 115.301 54.9384C118.018 53.0344 118.29 51.9465 119.105 51.9465C119.92 51.9465 121.006 53.5784 121.006 53.5784L128.478 76.0176C126.464 78.2931 124.13 80.263 121.55 81.8654C117.203 84.5853 112.041 85.9452 109.596 84.8573C107.15 83.7693 102.532 82.9534 101.717 80.7774C100.902 78.6015 99.5432 72.0738 99.5432 72.0738L103.347 55.4823L108.373 52.0825Z" fill="#F2F2F2"/>
<path d="M107.324 74.7768C107.916 73.496 108.002 72.0462 108.053 70.6356C108.132 69.2385 108.095 67.8372 107.942 66.4463C107.701 64.6269 107.109 62.8741 106.736 61.0774C106.408 59.5015 106.249 57.8953 106.261 56.2857C106.266 55.5512 106.319 54.778 106.719 54.1622C106.998 53.7325 107.434 53.3998 107.608 52.918C107.95 51.9734 107.106 50.9842 106.18 50.5952C105.08 50.1324 103.822 50.1635 102.663 50.4539C101.505 50.7443 100.425 51.2784 99.3553 51.8088C98.5824 52.1918 97.7931 52.5867 97.1938 53.2076C96.3504 54.0813 95.9796 55.2981 95.6802 56.4755C95.4405 57.4179 95.2275 58.4005 95.4098 59.3557C95.706 60.9067 96.969 62.0733 97.6422 63.5013C98.4241 65.1596 98.3714 67.092 98.0604 68.8991C97.7495 70.7061 97.1974 72.473 97.0272 74.2988C96.857 76.1245 97.1183 78.0871 98.2609 79.5203C98.7265 80.1043 99.9896 81.4885 100.842 81.3319C101.512 81.2088 102.482 79.7331 103.022 79.2653C104.58 77.9139 106.429 76.7119 107.324 74.7768Z" fill="#2F2E41"/>
<path d="M121.558 51.1955C121.582 52.7125 120.914 54.1544 120.129 55.4518C119.343 56.7493 118.42 57.9763 117.842 59.3785C117.122 61.1336 116.975 63.0715 117.422 64.9152C117.588 65.5432 117.788 66.1617 118.021 66.7679L119.51 70.8556C119.71 71.4983 120.001 72.1092 120.373 72.6699C120.71 73.0994 121.105 73.4797 121.546 73.7997C122.677 74.7138 123.978 75.3933 125.374 75.7988C126.775 76.1693 128.307 76.1461 129.63 75.5557C129.774 70.0143 130.663 64.5175 132.274 59.2141C132.572 58.2351 132.897 57.2043 132.667 56.2071C132.41 55.0901 131.514 54.2515 130.662 53.4856C128.057 51.1433 125.191 48.683 121.704 48.3672C119.686 48.1845 121.541 50.0988 121.558 51.1955Z" fill="#2F2E41"/>
<path d="M103.729 82.8182C103.936 83.2232 104.064 83.6642 104.269 84.0703C104.57 84.6149 104.943 85.1168 105.377 85.5626C107.194 87.5791 109.414 89.588 112.124 89.7096C112.393 89.7348 112.665 89.7006 112.919 89.6094C113.393 89.4121 113.673 88.9036 113.766 88.398C113.958 87.3447 113.493 86.2937 113.028 85.3295C112.02 83.2396 110.886 81.0968 108.999 79.749C107.139 78.4203 104.647 78.0977 102.477 78.7667C101.494 79.0698 99.8645 79.5992 101.166 80.497C102.153 81.1781 103.157 81.6966 103.729 82.8182Z" fill="#FFB9B9"/>
<path d="M105.359 115.732C104.549 116.834 104.711 118.41 103.994 119.574C103.372 120.583 102.2 121.112 101.422 122.007C101.174 122.304 100.953 122.623 100.761 122.959C100.039 124.169 99.4527 125.72 100.163 126.937C100.735 127.915 101.937 128.298 103.039 128.558C104.432 128.888 105.879 129.152 107.288 128.9C108.697 128.648 110.075 127.784 110.577 126.442C110.676 126.105 110.793 125.773 110.929 125.449C111.692 123.944 114.088 123.928 114.87 122.432C115.417 121.385 114.914 120.119 114.411 119.05L112.876 115.785C112.367 114.702 110.301 115.325 109.225 115.065C107.821 114.726 106.369 114.353 105.359 115.732Z" fill="#2F2E41"/>
<path d="M117.233 112.928C116.581 113.385 116.16 114.102 115.844 114.832C115.084 116.587 114.823 118.511 114.57 120.406C114.468 121.166 114.367 121.943 114.526 122.693C114.853 124.241 116.254 125.381 117.763 125.854C119.271 126.327 120.889 126.255 122.467 126.177C122.974 126.152 123.502 126.122 123.946 125.876C124.74 125.438 125.05 124.409 124.914 123.512C124.778 122.615 124.288 121.817 123.809 121.047C123.33 120.278 122.84 119.48 122.703 118.584C122.472 117.075 123.124 114.862 122.198 113.497C121.271 112.13 118.471 112.059 117.233 112.928Z" fill="#2F2E41"/>
<path d="M121.073 40.0783C120.928 39.5904 120.609 39.173 120.176 38.9058C120.198 38.3831 120.134 37.8603 119.986 37.3585C119.493 35.8976 118.323 35.9813 117.22 35.3354C116.741 35.0552 116.771 34.8075 116.522 34.3473C116.195 33.7439 115.706 33.2444 115.11 32.9054C114.402 32.454 113.655 31.989 112.818 31.9319C111.058 31.8118 109.709 33.4688 108.027 34.0006C107.286 34.2349 106.489 34.2446 105.744 34.4662C104.999 34.6878 104.255 35.2169 104.144 35.9872C104.093 36.3428 104.183 36.7076 104.131 37.0632C104.028 37.7698 103.409 38.2647 102.994 38.8459C102.078 40.1311 102.182 41.9468 102.915 43.3452C103.07 43.6346 103.247 43.9115 103.444 44.1734C103.505 44.8343 103.695 45.477 104.002 46.0651C104.735 47.4635 105.997 48.5085 107.315 49.3766C107.207 48.9129 107.141 48.4402 107.119 47.9645C107.1 47.806 107.121 47.6453 107.179 47.4966C107.326 47.1895 107.714 47.1079 108.009 46.9397C108.622 46.5913 108.862 45.8203 108.879 45.1153C108.897 44.4104 108.748 43.7043 108.822 43.0031C108.825 42.8418 108.861 42.6829 108.929 42.5367C108.997 42.3905 109.095 42.2601 109.216 42.1541C109.442 42.025 109.701 41.9634 109.96 41.9765C111.215 41.9252 112.526 41.9021 113.633 41.3081C114.01 41.1055 114.361 40.8375 114.776 40.7292C115.717 40.4837 116.678 41.1437 117.22 41.9514C117.762 42.7591 118.032 43.7204 118.532 44.5548C119.032 45.3892 119.896 46.1333 120.863 46.0344C120.918 46.0346 120.972 46.0232 121.022 46.001C121.071 45.9789 121.116 45.9464 121.152 45.9059C121.194 45.8309 121.212 45.7451 121.205 45.6596L121.259 41.9591C121.304 41.3262 121.241 40.6902 121.073 40.0783Z" fill="#2F2E41"/>
<path d="M95.279 59.4346C94.5013 60.5832 93.6047 61.6875 93.1772 63.0074C92.926 63.7832 92.848 64.6033 92.6661 65.3983C92.0602 68.0461 90.3099 70.3979 90.134 73.1087C90.0724 73.711 90.1607 74.3192 90.3912 74.879C90.8933 75.9724 92.0949 76.5487 93.2411 76.9111C94.3873 77.2736 95.6183 77.5347 96.5332 78.3153C96.9938 78.7573 97.4115 79.2421 97.7807 79.7631C99.2733 81.6217 101.281 82.9972 103.553 83.7167C103.373 82.479 103.289 80.9873 104.277 80.2223C104.812 79.8082 105.527 79.7345 106.201 79.6762L109.384 79.4008C107.261 77.3396 104.921 75.5149 102.406 73.9586C101.525 73.4143 100.567 72.84 100.165 71.8856C99.9142 71.2889 99.9177 70.6206 99.9117 69.9731C99.8898 67.6029 99.6894 65.2378 99.312 62.8979C99.05 61.2731 98.703 59.6629 98.3061 58.0658C98.1947 57.6174 97.5362 55.6063 96.7257 56.0769C96.5348 56.1877 96.3561 57.4635 96.2447 57.7282C95.9793 58.3273 95.6559 58.8988 95.279 59.4346Z" fill="#2F2E41"/>
<path opacity="0.1" d="M99.6842 62.9213C99.7201 64.8426 99.3124 66.7463 98.4929 68.484C98.2797 68.8681 98.1226 69.2807 98.0264 69.7094C97.8838 70.6239 98.4036 71.5091 98.9977 72.2182C100.17 73.6127 101.69 74.6714 103.403 75.2867" fill="black"/>
<path d="M119.966 53.1747L120.158 53.2051C119.99 53.1785 119.84 53.0863 119.74 52.9487C119.64 52.8111 119.599 52.6395 119.625 52.4715L121.608 39.9331C121.634 39.7651 121.727 39.6146 121.864 39.5146C122.001 39.4147 122.173 39.3734 122.341 39.4L122.149 39.3696C122.282 39.3908 122.41 39.438 122.525 39.5087C122.641 39.5793 122.741 39.672 122.82 39.7814C122.9 39.8908 122.957 40.0148 122.988 40.1463C123.02 40.2778 123.025 40.4142 123.004 40.5478L121.143 52.3186C121.122 52.4521 121.075 52.5802 121.004 52.6956C120.934 52.8109 120.841 52.9112 120.732 52.9907C120.622 53.0702 120.499 53.1273 120.367 53.1589C120.236 53.1905 120.1 53.1959 119.966 53.1747Z" fill="#2F2E41"/>
<path d="M122.081 39.3592L122.372 39.4053L120.189 53.2103L119.898 53.1643C119.849 53.1565 119.802 53.1391 119.76 53.1131C119.717 53.0871 119.681 53.053 119.651 53.0128C119.622 52.9725 119.601 52.9269 119.589 52.8785C119.578 52.8301 119.576 52.7799 119.584 52.7307L121.648 39.6743C121.656 39.6251 121.673 39.578 121.699 39.5355C121.725 39.4931 121.759 39.4562 121.799 39.427C121.84 39.3977 121.885 39.3767 121.934 39.365C121.982 39.3534 122.032 39.3515 122.081 39.3592Z" fill="#09CEF9"/>
<path d="M122.119 41.1879L122.063 41.1791C122.044 41.1759 122.025 41.1895 122.022 41.2094L121.855 42.2633C121.852 42.2832 121.866 42.3018 121.885 42.305L121.941 42.3138C121.961 42.317 121.98 42.3034 121.983 42.2835L122.15 41.2296C122.153 41.2097 122.139 41.1911 122.119 41.1879Z" fill="#464353"/>
<path d="M127.049 50.763C127.349 50.0073 127.653 49.2257 127.633 48.4128C127.581 47.6761 127.358 46.9616 126.982 46.3266C126.524 45.4745 125.952 44.6887 125.282 43.991C124.485 43.1606 123.333 42.419 122.246 42.7959C121.382 43.0952 120.89 43.9951 120.571 44.8521C120.381 45.2706 120.305 45.7324 120.353 46.1897C120.459 46.7797 120.914 47.2327 121.244 47.7331C121.761 48.5176 121.982 49.455 122.195 50.3705L122.728 52.6669L123.643 56.6112C123.619 56.5073 125.342 54.873 125.547 54.525C126.206 53.4042 126.569 51.9729 127.049 50.763Z" fill="#FFB9B9"/>
<path d="M131.943 55.0943L133.243 57.8009C133.869 58.9138 134.154 60.1867 134.063 61.4608L134.14 69.5798C134.15 70.6647 134.158 71.7661 133.873 72.8128C133.792 73.1622 133.639 73.4909 133.425 73.7782C133.204 74.0257 132.944 74.2352 132.656 74.3982C130.196 75.9372 127.005 76.8119 124.406 75.5223C123.811 75.2045 123.245 74.8346 122.715 74.4169C121.679 73.6488 120.627 72.8658 119.852 71.8345C119.041 70.7552 122.771 66.6487 122.225 65.4134C121.248 63.2005 121.789 57.9522 120.272 56.0687C120.051 55.7946 122.058 56.0414 122.05 55.6894C122.034 54.9778 123.738 53.9489 124.396 53.6781C125.519 53.2156 126.813 52.2717 127.001 51.0703C129.39 54.2067 122.682 63.6833 126.452 64.8294C126.511 64.8672 126.579 64.8883 126.649 64.8904C126.719 64.8926 126.789 64.8757 126.85 64.8416C126.911 64.8074 126.962 64.7574 126.997 64.6966C127.033 64.6359 127.051 64.5667 127.05 64.4965C127.264 63.6001 127.339 62.6771 127.496 61.769C127.783 60.1152 128.336 58.5189 129.133 57.0423C129.58 56.2143 131.025 53.1838 131.943 55.0943Z" fill="#2F2E41"/>
<path opacity="0.1" d="M127.913 61.3019C127.721 61.8176 127.895 62.3879 128.043 62.9178C128.471 64.455 128.67 66.0467 128.636 67.642C128.642 67.6699 128.641 67.6989 128.633 67.7264C128.625 67.7539 128.611 67.779 128.591 67.7995C128.571 67.8199 128.546 67.8351 128.519 67.8436C128.492 67.8521 128.463 67.8536 128.435 67.8481C127.808 67.8866 127.09 67.8906 126.664 67.4278" fill="black"/>
<path d="M27.1456 121.047H9.12817L5.99407 110.351C5.80308 109.699 5.76644 109.012 5.88705 108.343C6.00766 107.675 6.28221 107.044 6.68892 106.5C7.09562 105.956 7.6233 105.515 8.23009 105.211C8.83687 104.907 9.50608 104.748 10.1846 104.748H25.9463C26.6203 104.748 27.2852 104.905 27.8888 105.205C28.4925 105.505 29.0185 105.941 29.4258 106.478C29.8331 107.016 30.1106 107.641 30.2365 108.303C30.3625 108.966 30.3334 109.649 30.1517 110.299L27.1456 121.047Z" fill="#3F3D56"/>
<path d="M36.2628 40.6826C35.7047 40.6826 35.1591 40.5169 34.695 40.2065C34.2309 39.896 33.8692 39.4548 33.6556 38.9386C33.442 38.4223 33.3861 37.8543 33.495 37.3063C33.6039 36.7582 33.8727 36.2548 34.2673 35.8597C34.662 35.4646 35.1648 35.1956 35.7123 35.0865C36.2597 34.9775 36.8271 35.0335 37.3427 35.2473C37.8584 35.4611 38.2991 35.8233 38.6092 36.2878C38.9193 36.7524 39.0848 37.2987 39.0848 37.8574C39.084 38.6064 38.7864 39.3246 38.2573 39.8542C37.7283 40.3838 37.011 40.6818 36.2628 40.6826ZM36.2628 35.4669C35.7905 35.4669 35.3289 35.6071 34.9362 35.8698C34.5435 36.1325 34.2374 36.5058 34.0567 36.9426C33.876 37.3794 33.8287 37.8601 33.9208 38.3238C34.013 38.7875 34.2404 39.2135 34.5743 39.5478C34.9083 39.8821 35.3338 40.1098 35.797 40.202C36.2602 40.2943 36.7403 40.2469 37.1766 40.066C37.6129 39.885 37.9858 39.5786 38.2482 39.1855C38.5106 38.7924 38.6506 38.3302 38.6506 37.8574C38.6499 37.2236 38.3981 36.616 37.9505 36.1679C37.5028 35.7197 36.8959 35.4676 36.2628 35.4669Z" fill="#3F3D56"/>
<path d="M139.157 27.8607C138.599 27.8607 138.054 27.695 137.589 27.3845C137.125 27.0741 136.764 26.6329 136.55 26.1166C136.336 25.6004 136.281 25.0324 136.389 24.4843C136.498 23.9363 136.767 23.4329 137.162 23.0378C137.556 22.6427 138.059 22.3736 138.607 22.2646C139.154 22.1556 139.722 22.2115 140.237 22.4254C140.753 22.6392 141.194 23.0013 141.504 23.4659C141.814 23.9305 141.979 24.4767 141.979 25.0355C141.978 25.7845 141.681 26.5026 141.152 27.0323C140.623 27.5619 139.905 27.8598 139.157 27.8607ZM139.157 22.645C138.685 22.645 138.223 22.7852 137.831 23.0478C137.438 23.3105 137.132 23.6839 136.951 24.1207C136.77 24.5575 136.723 25.0381 136.815 25.5019C136.907 25.9656 137.135 26.3915 137.469 26.7258C137.803 27.0602 138.228 27.2878 138.691 27.3801C139.155 27.4723 139.635 27.425 140.071 27.2441C140.507 27.0631 140.88 26.7567 141.143 26.3636C141.405 25.9705 141.545 25.5083 141.545 25.0355C141.544 24.4017 141.293 23.7941 140.845 23.3459C140.397 22.8978 139.79 22.6457 139.157 22.645Z" fill="#3F3D56"/>
<path d="M92.9199 7.38888H87.2759V1.73856H92.9199V7.38888ZM87.71 6.95424H92.4857V2.1732H87.71V6.95424Z" fill="#3F3D56"/>
</g>
<defs>
<clipPath id="clip0">
<rect width="211" height="129" fill="white"/>
</clipPath>
</defs>
</svg>
