<svg width="247" height="133" viewBox="0 0 247 133" fill="none" xmlns="http://www.w3.org/2000/svg">
<g clip-path="url(#clip0)">
<path opacity="0.2" d="M50.8811 25.0307V29.4151H46.7788C48.0642 27.9098 49.4316 26.4483 50.8811 25.0307Z" fill="#09CEF9"/>
<path opacity="0.2" d="M58.4099 23.9189H52.902V29.415H58.4099V23.9189Z" fill="#09CEF9"/>
<path opacity="0.2" d="M65.9365 23.9189H60.4286V29.415H65.9365V23.9189Z" fill="#09CEF9"/>
<path opacity="0.2" d="M73.4652 23.9189H67.9574V29.415H73.4652V23.9189Z" fill="#09CEF9"/>
<path opacity="0.2" d="M80.9918 23.9189H75.484V29.415H80.9918V23.9189Z" fill="#09CEF9"/>
<path opacity="0.2" d="M88.5205 23.9189H83.0127V29.415H88.5205V23.9189Z" fill="#09CEF9"/>
<path d="M96.0493 23.9189H90.5415V29.415H96.0493V23.9189Z" fill="#09CEF9"/>
<path opacity="0.2" d="M103.576 23.9189H98.0681V29.415H103.576V23.9189Z" fill="#09CEF9"/>
<path opacity="0.2" d="M111.105 23.9189H105.597V29.415H111.105V23.9189Z" fill="#09CEF9"/>
<path opacity="0.2" d="M118.631 23.9189H113.123V29.415H118.631V23.9189Z" fill="#09CEF9"/>
<path d="M126.16 23.9189H120.652V29.415H126.16V23.9189Z" fill="#09CEF9"/>
<path opacity="0.2" d="M133.689 23.9189H128.181V29.415H133.689V23.9189Z" fill="#09CEF9"/>
<path opacity="0.2" d="M141.215 23.9189H135.708V29.415H141.215V23.9189Z" fill="#09CEF9"/>
<path opacity="0.2" d="M148.744 23.9189H143.236V29.415H148.744V23.9189Z" fill="#09CEF9"/>
<path opacity="0.2" d="M156.273 23.9189H150.765V29.415H156.273V23.9189Z" fill="#09CEF9"/>
<path opacity="0.2" d="M163.799 23.9189H158.292V29.415H163.799V23.9189Z" fill="#09CEF9"/>
<path opacity="0.2" d="M171.328 23.9189H165.82V29.415H171.328V23.9189Z" fill="#09CEF9"/>
<path d="M178.855 23.9189H173.347V29.415H178.855V23.9189Z" fill="#09CEF9"/>
<path d="M186.383 23.9189H180.876V29.415H186.383V23.9189Z" fill="#09CEF9"/>
<path opacity="0.2" d="M193.912 23.9189H188.404V29.415H193.912V23.9189Z" fill="#09CEF9"/>
<path opacity="0.2" d="M201.439 23.9189H195.931V29.415H201.439V23.9189Z" fill="#09CEF9"/>
<path d="M208.968 23.9189H203.46V29.415H208.968V23.9189Z" fill="#09CEF9"/>
<path d="M216.494 23.9189H210.986V29.415H216.494V23.9189Z" fill="#09CEF9"/>
<path d="M43.3545 33.7692V36.3761H41.5884C42.1497 35.4885 42.7385 34.6195 43.3545 33.7692Z" fill="#09CEF9"/>
<path opacity="0.2" d="M50.8811 30.8801H45.3733V36.3762H50.8811V30.8801Z" fill="#09CEF9"/>
<path d="M58.4099 30.8801H52.902V36.3762H58.4099V30.8801Z" fill="#09CEF9"/>
<path opacity="0.2" d="M65.9365 30.8801H60.4286V36.3762H65.9365V30.8801Z" fill="#09CEF9"/>
<path opacity="0.7" d="M73.4652 30.8801H67.9574V36.3762H73.4652V30.8801Z" fill="#09CEF9"/>
<path opacity="0.2" d="M80.9918 30.8801H75.484V36.3762H80.9918V30.8801Z" fill="#09CEF9"/>
<path opacity="0.4" d="M88.5205 30.8801H83.0127V36.3762H88.5205V30.8801Z" fill="#09CEF9"/>
<path d="M96.0493 30.8801H90.5415V36.3762H96.0493V30.8801Z" fill="#09CEF9"/>
<path opacity="0.4" d="M103.576 30.8801H98.0681V36.3762H103.576V30.8801Z" fill="#09CEF9"/>
<path opacity="0.2" d="M111.105 30.8801H105.597V36.3762H111.105V30.8801Z" fill="#09CEF9"/>
<path opacity="0.4" d="M118.631 30.8801H113.123V36.3762H118.631V30.8801Z" fill="#09CEF9"/>
<path d="M126.16 30.8801H120.652V36.3762H126.16V30.8801Z" fill="#09CEF9"/>
<path opacity="0.4" d="M133.689 30.8801H128.181V36.3762H133.689V30.8801Z" fill="#09CEF9"/>
<path opacity="0.4" d="M141.215 30.8801H135.708V36.3762H141.215V30.8801Z" fill="#09CEF9"/>
<path opacity="0.2" d="M148.744 30.8801H143.236V36.3762H148.744V30.8801Z" fill="#09CEF9"/>
<path opacity="0.4" d="M156.273 30.8801H150.765V36.3762H156.273V30.8801Z" fill="#09CEF9"/>
<path opacity="0.4" d="M163.799 30.8801H158.292V36.3762H163.799V30.8801Z" fill="#09CEF9"/>
<path opacity="0.2" d="M171.328 30.8801H165.82V36.3762H171.328V30.8801Z" fill="#09CEF9"/>
<path opacity="0.2" d="M178.855 30.8801H173.347V36.3762H178.855V30.8801Z" fill="#09CEF9"/>
<path opacity="0.4" d="M186.383 30.8801H180.876V36.3762H186.383V30.8801Z" fill="#09CEF9"/>
<path opacity="0.2" d="M193.912 30.8801H188.404V36.3762H193.912V30.8801Z" fill="#09CEF9"/>
<path d="M201.439 30.8801H195.931V36.3762H201.439V30.8801Z" fill="#09CEF9"/>
<path d="M208.968 30.8801H203.46V36.3762H208.968V30.8801Z" fill="#09CEF9"/>
<path d="M216.494 30.8801H210.986V36.3762H216.494V30.8801Z" fill="#09CEF9"/>
<path opacity="0.2" d="M28.297 39.4979V43.3393H22.7892V41.4628C24.5713 40.6664 26.4128 40.0095 28.297 39.4979Z" fill="#09CEF9"/>
<path opacity="0.2" d="M35.8258 38.257V43.3394H30.3179V39.011L35.8258 38.257Z" fill="#09CEF9"/>
<path d="M43.3524 37.8433H37.8445V43.3394H43.3524V37.8433Z" fill="#09CEF9"/>
<path opacity="0.7" d="M50.8811 37.8433H45.3733V43.3394H50.8811V37.8433Z" fill="#09CEF9"/>
<path d="M58.4099 37.8433H52.902V43.3394H58.4099V37.8433Z" fill="#09CEF9"/>
<path opacity="0.7" d="M65.9365 37.8433H60.4286V43.3394H65.9365V37.8433Z" fill="#09CEF9"/>
<path opacity="0.7" d="M73.4652 37.8433H67.9574V43.3394H73.4652V37.8433Z" fill="#09CEF9"/>
<path opacity="0.2" d="M80.9918 37.8433H75.484V43.3394H80.9918V37.8433Z" fill="#09CEF9"/>
<path opacity="0.4" d="M88.5205 37.8433H83.0127V43.3394H88.5205V37.8433Z" fill="#09CEF9"/>
<path opacity="0.4" d="M96.0493 37.8433H90.5415V43.3394H96.0493V37.8433Z" fill="#09CEF9"/>
<path d="M103.576 37.8433H98.0681V43.3394H103.576V37.8433Z" fill="#09CEF9"/>
<path opacity="0.2" d="M111.105 37.8433H105.597V43.3394H111.105V37.8433Z" fill="#09CEF9"/>
<path opacity="0.4" d="M118.631 37.8433H113.123V43.3394H118.631V37.8433Z" fill="#09CEF9"/>
<path d="M126.16 37.8433H120.652V43.3394H126.16V37.8433Z" fill="#09CEF9"/>
<path opacity="0.2" d="M133.689 37.8433H128.181V43.3394H133.689V37.8433Z" fill="#09CEF9"/>
<path opacity="0.4" d="M141.215 37.8433H135.708V43.3394H141.215V37.8433Z" fill="#09CEF9"/>
<path opacity="0.2" d="M148.744 37.8433H143.236V43.3394H148.744V37.8433Z" fill="#09CEF9"/>
<path d="M156.273 37.8433H150.765V43.3394H156.273V37.8433Z" fill="#09CEF9"/>
<path opacity="0.2" d="M163.799 37.8433H158.292V43.3394H163.799V37.8433Z" fill="#09CEF9"/>
<path opacity="0.7" d="M171.328 37.8433H165.82V43.3394H171.328V37.8433Z" fill="#09CEF9"/>
<path opacity="0.7" d="M178.855 37.8433H173.347V43.3394H178.855V37.8433Z" fill="#09CEF9"/>
<path opacity="0.4" d="M186.383 37.8433H180.876V43.3394H186.383V37.8433Z" fill="#09CEF9"/>
<path opacity="0.2" d="M193.912 37.8433H188.404V43.3394H193.912V37.8433Z" fill="#09CEF9"/>
<path d="M201.439 37.8433H195.931V43.3394H201.439V37.8433Z" fill="#09CEF9"/>
<path d="M208.968 37.8433H203.46V43.3394H208.968V37.8433Z" fill="#09CEF9"/>
<path d="M216.494 37.8433H210.986V43.3394H216.494V37.8433Z" fill="#09CEF9"/>
<path opacity="0.2" d="M28.297 44.8044H22.7892V50.3005H28.297V44.8044Z" fill="#09CEF9"/>
<path opacity="0.2" d="M35.8258 44.8044H30.3179V50.3005H35.8258V44.8044Z" fill="#09CEF9"/>
<path opacity="0.2" d="M43.3524 44.8044H37.8445V50.3005H43.3524V44.8044Z" fill="#09CEF9"/>
<path opacity="0.2" d="M50.8811 44.8044H45.3733V50.3005H50.8811V44.8044Z" fill="#09CEF9"/>
<path d="M58.4099 44.8044H52.902V50.3005H58.4099V44.8044Z" fill="#09CEF9"/>
<path opacity="0.7" d="M65.9365 44.8044H60.4286V50.3005H65.9365V44.8044Z" fill="#09CEF9"/>
<path opacity="0.7" d="M73.4652 44.8044H67.9574V50.3005H73.4652V44.8044Z" fill="#09CEF9"/>
<path opacity="0.2" d="M80.9918 44.8044H75.484V50.3005H80.9918V44.8044Z" fill="#09CEF9"/>
<path opacity="0.2" d="M88.5205 44.8044H83.0127V50.3005H88.5205V44.8044Z" fill="#09CEF9"/>
<path opacity="0.4" d="M96.0493 44.8044H90.5415V50.3005H96.0493V44.8044Z" fill="#09CEF9"/>
<path opacity="0.4" d="M103.576 44.8044H98.0681V50.3005H103.576V44.8044Z" fill="#09CEF9"/>
<path d="M111.105 44.8044H105.597V50.3005H111.105V44.8044Z" fill="#09CEF9"/>
<path opacity="0.2" d="M118.631 44.8044H113.123V50.3005H118.631V44.8044Z" fill="#09CEF9"/>
<path opacity="0.4" d="M126.16 44.8044H120.652V50.3005H126.16V44.8044Z" fill="#09CEF9"/>
<path opacity="0.4" d="M133.689 44.8044H128.181V50.3005H133.689V44.8044Z" fill="#09CEF9"/>
<path opacity="0.4" d="M141.215 44.8044H135.708V50.3005H141.215V44.8044Z" fill="#09CEF9"/>
<path opacity="0.4" d="M148.744 44.8044H143.236V50.3005H148.744V44.8044Z" fill="#09CEF9"/>
<path opacity="0.2" d="M156.273 44.8044H150.765V50.3005H156.273V44.8044Z" fill="#09CEF9"/>
<path opacity="0.2" d="M163.799 44.8044H158.292V50.3005H163.799V44.8044Z" fill="#09CEF9"/>
<path opacity="0.2" d="M171.328 44.8044H165.82V50.3005H171.328V44.8044Z" fill="#09CEF9"/>
<path opacity="0.2" d="M178.855 44.8044H173.347V50.3005H178.855V44.8044Z" fill="#09CEF9"/>
<path opacity="0.7" d="M186.383 44.8044H180.876V50.3005H186.383V44.8044Z" fill="#09CEF9"/>
<path opacity="0.7" d="M193.912 44.8044H188.404V50.3005H193.912V44.8044Z" fill="#09CEF9"/>
<path opacity="0.4" d="M201.439 44.8044H195.931V50.3005H201.439V44.8044Z" fill="#09CEF9"/>
<path opacity="0.2" d="M208.968 44.8044H203.46V50.3005H208.968V44.8044Z" fill="#09CEF9"/>
<path d="M216.494 44.8044H210.986V50.3005H216.494V44.8044Z" fill="#09CEF9"/>
<path opacity="0.2" d="M28.297 51.7677H22.7892V57.2638H28.297V51.7677Z" fill="#09CEF9"/>
<path opacity="0.2" d="M35.8258 51.7677H30.3179V57.2638H35.8258V51.7677Z" fill="#09CEF9"/>
<path opacity="0.4" d="M43.3524 51.7677H37.8445V57.2638H43.3524V51.7677Z" fill="#09CEF9"/>
<path opacity="0.2" d="M50.8811 51.7677H45.3733V57.2638H50.8811V51.7677Z" fill="#09CEF9"/>
<path opacity="0.2" d="M58.4099 51.7677H52.902V57.2638H58.4099V51.7677Z" fill="#09CEF9"/>
<path opacity="0.7" d="M65.9365 51.7677H60.4286V57.2638H65.9365V51.7677Z" fill="#09CEF9"/>
<path opacity="0.7" d="M73.4652 51.7677H67.9574V57.2638H73.4652V51.7677Z" fill="#09CEF9"/>
<path opacity="0.2" d="M80.9918 51.7677H75.484V57.2638H80.9918V51.7677Z" fill="#09CEF9"/>
<path opacity="0.2" d="M88.5205 51.7677H83.0127V57.2638H88.5205V51.7677Z" fill="#09CEF9"/>
<path opacity="0.4" d="M96.0493 51.7677H90.5415V57.2638H96.0493V51.7677Z" fill="#09CEF9"/>
<path d="M103.576 51.7677H98.0681V57.2638H103.576V51.7677Z" fill="#09CEF9"/>
<path opacity="0.2" d="M111.105 51.7677H105.597V57.2638H111.105V51.7677Z" fill="#09CEF9"/>
<path d="M118.631 51.7677H113.123V57.2638H118.631V51.7677Z" fill="#09CEF9"/>
<path d="M126.16 51.7677H120.652V57.2638H126.16V51.7677Z" fill="#09CEF9"/>
<path d="M133.689 51.7677H128.181V57.2638H133.689V51.7677Z" fill="#09CEF9"/>
<path opacity="0.2" d="M141.215 51.7677H135.708V57.2638H141.215V51.7677Z" fill="#09CEF9"/>
<path d="M148.744 51.7677H143.236V57.2638H148.744V51.7677Z" fill="#09CEF9"/>
<path opacity="0.2" d="M156.273 51.7677H150.765V57.2638H156.273V51.7677Z" fill="#09CEF9"/>
<path opacity="0.2" d="M163.799 51.7677H158.292V57.2638H163.799V51.7677Z" fill="#09CEF9"/>
<path opacity="0.2" d="M171.328 51.7677H165.82V57.2638H171.328V51.7677Z" fill="#09CEF9"/>
<path opacity="0.2" d="M178.855 51.7677H173.347V57.2638H178.855V51.7677Z" fill="#09CEF9"/>
<path opacity="0.2" d="M186.383 51.7677H180.876V57.2638H186.383V51.7677Z" fill="#09CEF9"/>
<path opacity="0.7" d="M193.912 51.7677H188.404V57.2638H193.912V51.7677Z" fill="#09CEF9"/>
<path opacity="0.2" d="M201.439 51.7677H195.931V57.2638H201.439V51.7677Z" fill="#09CEF9"/>
<path opacity="0.2" d="M208.968 51.7677H203.46V57.2638H208.968V51.7677Z" fill="#09CEF9"/>
<path d="M216.494 51.7677H210.986V57.2638H216.494V51.7677Z" fill="#09CEF9"/>
<path opacity="0.2" d="M28.297 58.7289H22.7892V64.2249H28.297V58.7289Z" fill="#09CEF9"/>
<path opacity="0.2" d="M35.8258 58.7289H30.3179V64.2249H35.8258V58.7289Z" fill="#09CEF9"/>
<path opacity="0.2" d="M43.3524 58.7289H37.8445V64.2249H43.3524V58.7289Z" fill="#09CEF9"/>
<path opacity="0.4" d="M50.8811 58.7289H45.3733V64.2249H50.8811V58.7289Z" fill="#09CEF9"/>
<path opacity="0.2" d="M58.4099 58.7289H52.902V64.2249H58.4099V58.7289Z" fill="#09CEF9"/>
<path opacity="0.2" d="M65.9365 58.7289H60.4286V64.2249H65.9365V58.7289Z" fill="#09CEF9"/>
<path opacity="0.7" d="M73.4652 58.7289H67.9574V64.2249H73.4652V58.7289Z" fill="#09CEF9"/>
<path opacity="0.2" d="M80.9918 58.7289H75.484V64.2249H80.9918V58.7289Z" fill="#09CEF9"/>
<path opacity="0.2" d="M88.5205 58.7289H83.0127V64.2249H88.5205V58.7289Z" fill="#09CEF9"/>
<path opacity="0.2" d="M96.0493 58.7289H90.5415V64.2249H96.0493V58.7289Z" fill="#09CEF9"/>
<path d="M103.576 58.7289H98.0681V64.2249H103.576V58.7289Z" fill="#09CEF9"/>
<path opacity="0.2" d="M111.105 58.7289H105.597V64.2249H111.105V58.7289Z" fill="#09CEF9"/>
<path d="M118.631 58.7289H113.123V64.2249H118.631V58.7289Z" fill="#09CEF9"/>
<path d="M126.16 58.7289H120.652V64.2249H126.16V58.7289Z" fill="#09CEF9"/>
<path opacity="0.2" d="M133.689 58.7289H128.181V64.2249H133.689V58.7289Z" fill="#09CEF9"/>
<path opacity="0.2" d="M141.215 58.7289H135.708V64.2249H141.215V58.7289Z" fill="#09CEF9"/>
<path opacity="0.2" d="M148.744 58.7289H143.236V64.2249H148.744V58.7289Z" fill="#09CEF9"/>
<path opacity="0.2" d="M156.273 58.7289H150.765V64.2249H156.273V58.7289Z" fill="#09CEF9"/>
<path opacity="0.2" d="M163.799 58.7289H158.292V64.2249H163.799V58.7289Z" fill="#09CEF9"/>
<path opacity="0.2" d="M171.328 58.7289H165.82V64.2249H171.328V58.7289Z" fill="#09CEF9"/>
<path opacity="0.2" d="M178.855 58.7289H173.347V64.2249H178.855V58.7289Z" fill="#09CEF9"/>
<path opacity="0.2" d="M186.383 58.7289H180.876V64.2249H186.383V58.7289Z" fill="#09CEF9"/>
<path opacity="0.2" d="M193.912 58.7289H188.404V64.2249H193.912V58.7289Z" fill="#09CEF9"/>
<path opacity="0.2" d="M201.439 58.7289H195.931V64.2249H201.439V58.7289Z" fill="#09CEF9"/>
<path opacity="0.4" d="M208.968 58.7289H203.46V64.2249H208.968V58.7289Z" fill="#09CEF9"/>
<path d="M216.494 58.7289H210.986V64.2249H216.494V58.7289Z" fill="#09CEF9"/>
<path opacity="0.7" d="M28.297 65.692H22.7892V71.1881H28.297V65.692Z" fill="#09CEF9"/>
<path opacity="0.7" d="M35.8258 65.692H30.3179V71.1881H35.8258V65.692Z" fill="#09CEF9"/>
<path opacity="0.7" d="M43.3524 65.692H37.8445V71.1881H43.3524V65.692Z" fill="#09CEF9"/>
<path opacity="0.7" d="M50.8811 65.692H45.3733V71.1881H50.8811V65.692Z" fill="#09CEF9"/>
<path opacity="0.7" d="M58.4099 65.692H52.902V71.1881H58.4099V65.692Z" fill="#09CEF9"/>
<path opacity="0.2" d="M65.9365 65.692H60.4286V71.1881H65.9365V65.692Z" fill="#09CEF9"/>
<path opacity="0.2" d="M73.4652 65.692H67.9574V71.1881H73.4652V65.692Z" fill="#09CEF9"/>
<path opacity="0.2" d="M80.9918 65.692H75.484V71.1881H80.9918V65.692Z" fill="#09CEF9"/>
<path opacity="0.2" d="M88.5205 65.692H83.0127V71.1881H88.5205V65.692Z" fill="#09CEF9"/>
<path opacity="0.2" d="M96.0493 65.692H90.5415V71.1881H96.0493V65.692Z" fill="#09CEF9"/>
<path opacity="0.2" d="M103.576 65.692H98.0681V71.1881H103.576V65.692Z" fill="#09CEF9"/>
<path d="M111.105 65.692H105.597V71.1881H111.105V65.692Z" fill="#09CEF9"/>
<path opacity="0.2" d="M118.631 65.692H113.123V71.1881H118.631V65.692Z" fill="#09CEF9"/>
<path opacity="0.2" d="M126.16 65.692H120.652V71.1881H126.16V65.692Z" fill="#09CEF9"/>
<path opacity="0.2" d="M133.689 65.692H128.181V71.1881H133.689V65.692Z" fill="#09CEF9"/>
<path d="M141.215 65.692H135.708V71.1881H141.215V65.692Z" fill="#09CEF9"/>
<path opacity="0.2" d="M148.744 65.692H143.236V71.1881H148.744V65.692Z" fill="#09CEF9"/>
<path opacity="0.2" d="M156.273 65.692H150.765V71.1881H156.273V65.692Z" fill="#09CEF9"/>
<path opacity="0.2" d="M163.799 65.692H158.292V71.1881H163.799V65.692Z" fill="#09CEF9"/>
<path opacity="0.2" d="M171.328 65.692H165.82V71.1881H171.328V65.692Z" fill="#09CEF9"/>
<path opacity="0.2" d="M178.855 65.692H173.347V71.1881H178.855V65.692Z" fill="#09CEF9"/>
<path opacity="0.2" d="M186.383 65.692H180.876V71.1881H186.383V65.692Z" fill="#09CEF9"/>
<path opacity="0.2" d="M193.912 65.692H188.404V71.1881H193.912V65.692Z" fill="#09CEF9"/>
<path opacity="0.2" d="M201.439 65.692H195.931V71.1881H201.439V65.692Z" fill="#09CEF9"/>
<path opacity="0.2" d="M208.968 65.692H203.46V71.1881H208.968V65.692Z" fill="#09CEF9"/>
<path d="M216.494 65.692H210.986V71.1881H216.494V65.692Z" fill="#09CEF9"/>
<path d="M158.59 85.9118C162.748 85.9118 166.118 82.5483 166.118 78.3991C166.118 74.25 162.748 70.8865 158.59 70.8865C154.432 70.8865 151.061 74.25 151.061 78.3991C151.061 82.5483 154.432 85.9118 158.59 85.9118Z" fill="#767D9F"/>
<path d="M158.199 68.8419C158.95 72.1138 159.588 75.4102 160.112 78.731C160.269 79.7177 160.41 80.7583 160.051 81.6912C159.751 82.469 159.14 83.0765 158.661 83.7573C158.181 84.4382 157.819 85.3107 158.11 86.0906C158.402 86.8706 159.252 87.2971 160.064 87.5169C162.387 88.1417 164.864 87.6871 167.176 87.0106C168.223 86.7416 169.227 86.3268 170.158 85.7782C171.138 85.1577 171.941 84.296 172.68 83.4083C176.05 79.3299 178.257 74.4349 180.334 69.5701C178.999 69.6913 177.655 69.4939 176.412 68.9942C175.169 68.4944 174.063 67.7067 173.185 66.6961C172.334 65.6985 171.71 64.3089 172.19 63.0895C170.784 63.8586 169.115 63.9103 167.602 64.436C166.663 64.7937 165.759 65.2373 164.903 65.761C163.869 66.3571 162.841 66.9647 161.82 67.5837C160.651 68.2861 159.557 68.9109 158.199 68.8419Z" fill="#FFA9A9"/>
<path d="M173.945 74.4823C172.626 77.044 170.909 79.5065 168.459 81.0319C166.008 82.5573 162.709 82.9709 160.254 81.4628C159.045 80.726 158.13 79.6056 157.074 78.662C156.018 77.7183 154.699 76.9104 153.28 77.0332C151.717 77.1689 150.493 78.3862 149.446 79.5518C147.857 81.3228 146.322 83.1691 145.197 85.2654C143.038 89.2943 142.526 94.004 142.621 98.5715C142.716 103.139 143.379 107.683 143.394 112.25C143.415 117.869 142.461 123.443 141.496 128.978C150.37 127.887 159.254 130.27 168.148 131.173C173.839 131.757 179.574 131.744 185.295 131.729C186.301 131.729 187.372 131.703 188.21 131.147C188.722 130.774 189.136 130.284 189.417 129.717C190.207 128.262 190.525 126.603 190.745 124.964C191.304 120.823 191.321 116.63 191.336 112.451C191.375 102.325 191.412 92.1619 190.123 82.1156C189.806 79.6444 189.4 77.1603 188.45 74.8486C187.5 72.5368 185.949 70.4104 183.782 69.1715C182.389 68.3744 179.161 66.9869 177.52 67.7905C175.679 68.6868 174.828 72.7673 173.945 74.4823Z" fill="#767D9F"/>
<path d="M174.601 103.076C174.267 96.8285 172.904 90.1604 175.804 84.6148C176.516 83.2532 173.96 81.5533 174.75 80.2348C175.715 78.6272 176.446 76.8914 176.922 75.0791C177.086 74.4565 177.218 73.7972 177.063 73.1724C176.776 72.0327 175.646 71.354 174.688 70.6603C173.63 69.8933 173.086 67.5557 172.745 66.291C172.403 65.0263 175.459 66.5495 176.687 66.0993C178.393 65.4766 180.56 65.8687 182.262 66.5C183.212 66.849 184.244 66.8792 185.256 66.905C187.223 66.9567 189.197 67.0063 191.149 66.765C192.025 66.6551 192.904 66.4892 193.785 66.5388C196.032 66.6659 197.986 68.1999 199.316 70.0139C200.646 71.828 201.493 73.9415 202.583 75.9064C203.492 77.5438 204.576 79.0907 205.351 80.7949C206.038 82.303 206.472 83.9232 206.901 85.5348L208.009 89.6692C208.203 90.2606 208.295 90.8806 208.281 91.5027C208.225 92.1641 207.931 92.7803 207.633 93.3684C206.507 95.5484 205.156 97.6056 203.602 99.5065C201.273 102.357 198.444 104.927 197.06 108.34C196.52 109.669 196.22 111.083 195.946 112.492C194.841 118.127 194.055 123.82 193.593 129.544C191.07 128.379 188.425 127.497 185.708 126.914C184.353 126.624 182.984 126.409 181.605 126.267C180.399 126.142 178.842 126.379 177.693 126.052C175.772 125.507 175.56 122.264 175.269 120.567C174.802 117.863 174.709 115.111 174.692 112.38C174.67 109.273 174.768 106.172 174.601 103.076Z" fill="#4C4981"/>
<path d="M132.402 91.3928C133.311 96.5635 134.313 101.749 136.288 106.608C136.239 106.655 136.189 106.698 136.139 106.741C135.964 106.89 135.783 107.03 135.593 107.172C135.15 107.482 134.665 107.745 134.298 108.15C134.159 108.305 134.049 108.484 133.974 108.678C133.906 108.83 133.871 108.994 133.871 109.16C133.871 109.326 133.906 109.49 133.974 109.641C132.944 110.096 131.748 109.956 130.593 109.913C129.597 109.876 128.632 109.913 127.833 110.458C126.724 111.22 126.389 112.685 126.21 114.017C126.143 114.502 126.087 114.989 126.039 115.476C125.993 115.928 125.956 116.382 125.927 116.837C125.829 118.343 125.815 119.854 125.886 121.362C125.897 121.637 125.912 121.913 125.931 122.189C122.403 122.105 119.188 120.269 116.146 118.485C115.451 118.078 114.734 117.649 114.283 116.977C113.867 116.317 113.691 115.534 113.784 114.76C113.784 114.65 113.804 114.545 113.819 114.433C113.915 113.793 114.081 113.166 114.313 112.563C115.265 109.991 116.668 107.609 118.456 105.528C119.229 104.628 120.099 103.747 120.46 102.615C120.618 102.122 120.676 101.599 120.836 101.107C121.552 98.9787 124.139 97.9726 125.024 95.9064C125.24 95.413 125.34 94.8723 125.607 94.3983C125.848 94.0044 126.159 93.6576 126.525 93.3749C126.682 93.2435 126.847 93.1164 127.009 92.9893C128.526 91.8029 129.987 90.5497 131.394 89.2297C131.656 88.9841 131.915 88.7356 132.171 88.4843C132.137 89.4594 132.214 90.4352 132.402 91.3928Z" fill="#4C4981"/>
<path d="M154.159 76.1003C153.848 76.4278 153.511 76.7359 153.181 77.0418L153.092 77.1215L152.743 77.4447C152.108 77.9914 151.558 78.6298 151.113 79.3385L151.076 79.3988C149.975 81.3658 150.383 83.7875 150.689 86.0217C151.07 88.8058 151.241 91.6145 151.201 94.4241C151.145 98.3022 150.687 102.154 150.679 106.028C150.679 106.907 150.698 107.784 150.737 108.663C150.8 110.091 150.907 111.518 151.037 112.944C151.177 114.508 151.346 116.07 151.503 117.632C151.629 118.841 151.747 120.047 151.847 121.254C151.896 121.879 151.944 122.501 151.983 123.126C152.028 123.859 152.065 124.593 152.086 125.326C152.101 125.791 152.11 126.254 152.11 126.72C152.11 126.985 152.11 127.248 152.11 127.51C152.11 128.014 152.096 128.517 152.069 129.018C152.04 129.663 151.996 130.31 151.937 130.958C151.87 131.662 151.752 132.431 151.255 132.927C151.225 132.957 151.192 132.985 151.16 133.013L150.461 132.927C145.638 132.351 140.77 132.264 135.93 132.668C136.036 131.94 136.133 131.214 136.228 130.484C136.271 130.139 136.314 129.792 136.355 129.445C136.403 129.049 136.448 128.652 136.491 128.256C136.541 127.825 136.586 127.394 136.629 126.963C136.742 125.853 136.84 124.742 136.925 123.63C137.05 122.009 137.145 120.384 137.21 118.757C137.242 117.98 137.266 117.202 137.284 116.423C137.308 115.458 137.32 114.492 137.318 113.526C137.318 112.586 137.31 111.646 137.294 110.703C137.294 110.393 137.281 110.083 137.256 109.775C137.237 109.497 137.199 109.222 137.141 108.95C136.981 108.322 136.764 107.711 136.493 107.123C136.446 107.011 136.401 106.907 136.355 106.789C136.329 106.73 136.306 106.67 136.282 106.612C137.525 105.507 138.411 104.027 139.261 102.57C140.641 100.224 142.053 97.7743 142.284 95.064C142.515 92.3537 141.166 89.3094 138.57 88.4821C137.864 88.2666 137.117 88.2063 136.39 88.0792C135.703 87.9585 134.272 87.6849 133.477 87.1937C133.045 87.6361 132.614 88.0706 132.182 88.4971C132.208 87.8463 132.367 87.2077 132.65 86.6206L132.957 86.6357C132.932 86.5667 132.92 86.4936 132.922 86.4202C132.922 86.1897 133.082 85.929 133.423 85.6403C134.44 84.7785 136.04 84.5868 136.681 83.4212C136.949 82.9365 136.994 82.3591 137.21 81.8506C137.83 80.4006 139.609 79.8663 140.68 78.7072C141.751 77.5481 142.019 75.9064 142.884 74.6137C143.531 73.6697 144.428 72.9238 145.475 72.4593C145.562 72.4183 145.65 72.3774 145.739 72.3408C147.531 71.5759 149.66 71.4014 151.516 71.4057C152.237 71.4057 154.107 71.4273 155.023 71.7914C155.171 71.8443 155.307 71.9272 155.422 72.0348C156.398 73.0948 154.88 75.3333 154.159 76.1003Z" fill="#4C4981"/>
<path d="M132.724 86.4699C134.391 85.9688 136.143 85.8036 137.875 85.9837C139.607 86.1638 141.287 86.6857 142.815 87.5191C144.37 88.3809 145.765 89.5831 146.62 91.1343C147.904 93.4611 147.848 96.2663 147.757 98.9227C147.712 100.252 147.654 101.629 147.066 102.822C146.386 104.203 145.104 105.151 143.795 105.927C142.976 106.449 142.078 106.836 141.135 107.075C139.685 107.39 138.177 107.123 136.716 106.86C135.127 106.567 133.421 106.213 132.318 105.033C131.67 104.348 131.316 103.458 130.966 102.587C130.464 101.331 129.96 100.075 129.455 98.8215C128.58 96.6433 128.285 94.8314 129.44 92.7092C129.964 91.7419 130.606 90.837 131.124 89.8632C131.383 89.3676 132.311 86.597 132.724 86.4699Z" fill="#4C4981"/>
<path d="M223.466 123.714V130.156C219.037 131.992 214.286 132.93 209.49 132.914H151.262C151.231 132.944 151.199 132.972 151.167 133L150.467 132.914H46.8889C38.1986 132.914 30.1452 130.574 23.5405 126.588V116.753L73.3551 111.016H73.3939L102.403 113.468L109.911 114.114L113.81 114.444L121.881 115.126L126.033 115.478L132.078 115.99L132.929 116.062L137.286 116.43L143.197 116.915L151.51 117.617L165.367 118.791L175.115 119.616L191.123 120.972L194.167 121.228L194.495 121.256L194.78 121.28L198.8 121.62L203.214 121.995L203.725 122.038L223.466 123.714Z" fill="#504F60"/>
<path d="M164.955 123.477L102.527 112.845L100.106 125.059L128.723 128.478L137.534 129.579L161.772 124.815L164.955 123.477Z" fill="#9C9CA1"/>
<path d="M132.639 128.967L163.916 123.1C164.072 123.07 164.234 123.075 164.388 123.115C164.542 123.155 164.686 123.228 164.808 123.329C164.931 123.431 165.03 123.558 165.097 123.702C165.164 123.846 165.199 124.003 165.198 124.162C165.199 124.415 165.111 124.659 164.95 124.853C164.788 125.047 164.564 125.179 164.315 125.225L133.771 130.932L132.639 128.967Z" fill="#9C9CA1"/>
<path d="M146.207 110.518C147.181 110.428 148.168 110.275 149.044 109.844C150.124 109.307 150.964 108.383 151.963 107.702C154.161 106.194 157.102 105.992 159.622 106.858C162.141 107.724 164.244 109.579 165.717 111.794C166.695 113.269 167.429 115.152 166.738 116.781C166.501 117.279 166.202 117.745 165.848 118.169L164.048 120.517C163.706 121.011 163.294 121.453 162.826 121.829C162.152 122.318 161.314 122.519 160.49 122.639C158.298 122.958 156.068 122.777 153.859 122.924C150.065 123.176 146.36 124.395 142.558 124.354C140.373 124.33 138.216 123.891 136.081 123.451L126.631 121.512C124.985 121.176 123.127 120.685 122.351 119.196C122.004 118.526 121.939 117.751 121.898 116.997C121.786 114.92 121.898 112.61 123.34 111.113C124.696 109.708 126.84 109.264 128.459 108.226C130.442 106.952 131.096 107.364 133.186 108.321C137.263 110.163 141.749 110.92 146.207 110.518Z" fill="#FFB9B9"/>
<path opacity="0.05" d="M146.207 110.518C147.181 110.428 148.168 110.275 149.044 109.844C150.124 109.307 150.964 108.383 151.963 107.702C154.161 106.194 157.102 105.992 159.622 106.858C162.141 107.724 164.244 109.579 165.717 111.794C166.695 113.269 167.429 115.152 166.738 116.781C166.501 117.279 166.202 117.745 165.848 118.169L164.048 120.517C163.706 121.011 163.294 121.453 162.826 121.829C162.152 122.318 161.314 122.519 160.49 122.639C158.298 122.958 156.068 122.777 153.859 122.924C150.065 123.176 146.36 124.395 142.558 124.354C140.373 124.33 138.216 123.891 136.081 123.451L126.631 121.512C124.985 121.176 123.127 120.685 122.351 119.196C122.004 118.526 121.939 117.751 121.898 116.997C121.786 114.92 121.898 112.61 123.34 111.113C124.696 109.708 126.84 109.264 128.459 108.226C130.442 106.952 131.096 107.364 133.186 108.321C137.263 110.163 141.749 110.92 146.207 110.518Z" fill="black"/>
<path d="M184.158 107.564C181.506 108.588 178.84 109.615 176.063 110.225C171.408 111.248 166.537 111.087 161.919 112.257C159.479 112.877 157.054 113.877 154.548 113.674C153.427 113.584 152.345 113.243 151.255 112.985C145.13 111.477 138.167 111.966 133.192 115.844C131.491 117.169 130.098 118.821 128.835 120.584C128.565 120.964 128.382 121.4 128.3 121.859C128.218 122.318 128.239 122.79 128.361 123.241C128.483 123.691 128.703 124.109 129.005 124.464C129.308 124.82 129.686 125.105 130.111 125.298C132.046 126.185 134.118 126.737 136.239 126.929C139.074 127.179 141.921 126.778 144.741 126.377C148.925 125.785 153.112 125.19 157.285 124.524C158.784 124.285 160.282 124.037 161.789 123.848C172.634 122.48 183.676 124.143 194.549 123.001C195.648 122.885 196.767 122.734 197.766 122.266C200.297 121.081 201.549 117.957 201.026 115.213C200.504 112.468 198.487 110.186 196.061 108.786C194.027 107.607 191.833 107.131 189.568 106.631C187.465 106.142 186.183 106.789 184.158 107.564Z" fill="#FFB9B9"/>
<path opacity="0.1" d="M207.417 91.1557C208.613 92.7199 208.868 94.8184 208.739 96.7768C208.609 98.7352 208.143 100.672 208.074 102.639C207.979 105.336 208.631 108.025 208.521 110.714C208.443 112.595 207.996 114.439 207.467 116.245C206.843 118.375 205.941 120.666 203.969 121.689C201.352 123.048 195.864 122.284 193.111 123.348C193.362 121.79 195.763 119.534 196.013 117.977C196.186 116.9 196.361 115.792 196.175 114.713C195.937 113.336 195.128 112.114 194.167 111.098C192.638 109.48 190.643 108.262 188.452 107.866C186.26 107.469 180.895 107.795 179.142 109.176C178.926 107.75 182.942 106.375 184.354 106.067C185.058 105.91 185.865 105.998 186.429 105.552C187.508 104.707 186.725 103.025 186.776 101.674C186.817 100.597 187.448 99.6099 187.575 98.5327C187.791 96.8091 186.664 95.0532 187.107 93.3619C187.271 92.7371 187.636 92.1877 187.888 91.5931C188.657 89.7726 188.32 87.6957 187.91 85.7609C187.655 84.5458 187.407 83.1756 188.085 82.1393C188.713 81.1719 190.497 84.6169 191.639 84.4575C195.411 83.9296 198.824 81.1396 201.871 83.4233C203.423 84.5867 203.626 85.7932 204.246 87.4544C204.848 89.0357 206.409 89.8458 207.417 91.1557Z" fill="black"/>
<path d="M208.065 91.1557C209.261 92.7199 209.516 94.8184 209.386 96.7768C209.257 98.7352 208.791 100.672 208.721 102.639C208.626 105.336 209.278 108.025 209.168 110.714C209.091 112.595 208.644 114.439 208.115 116.245C207.491 118.375 206.588 120.666 204.617 121.689C202 123.048 196.512 122.284 193.759 123.348C194.009 121.79 196.41 119.534 196.661 117.977C196.833 116.9 197.008 115.792 196.823 114.713C196.585 113.336 195.776 112.114 194.815 111.098C193.286 109.48 191.291 108.262 189.1 107.866C186.908 107.469 181.543 107.795 179.79 109.176C179.574 107.75 183.59 106.375 185.002 106.067C185.706 105.91 186.513 105.998 187.077 105.552C188.156 104.707 187.372 103.025 187.424 101.674C187.465 100.597 188.096 99.6099 188.223 98.5327C188.439 96.8091 187.312 95.0532 187.755 93.3619C187.919 92.7371 188.283 92.1877 188.536 91.5931C189.305 89.7726 188.968 87.6957 188.558 85.7609C188.303 84.5458 188.055 83.1756 188.733 82.1393C189.361 81.1719 190.589 80.8057 191.732 80.6441C195.556 80.1279 199.43 81.1255 202.527 83.4233C204.079 84.5867 204.282 85.7933 204.902 87.4544C205.496 89.0357 207.057 89.8458 208.065 91.1557Z" fill="#4C4981"/>
<path d="M65.2045 80.9479L76.9435 124.24C77.0875 124.77 77.3901 125.244 77.8109 125.599C78.2318 125.953 78.7509 126.171 79.2991 126.224L132.136 131.289C132.567 131.331 133.001 131.269 133.403 131.108C133.804 130.948 134.162 130.693 134.445 130.367C134.727 130.04 134.928 129.651 135.029 129.231C135.13 128.811 135.129 128.373 135.025 127.954L122.17 75.734C122.017 75.1133 121.648 74.5669 121.13 74.1917C120.611 73.8166 119.976 73.6371 119.337 73.6851L67.6076 77.546C67.2104 77.5767 66.8249 77.6946 66.4786 77.8912C66.1324 78.0877 65.8338 78.3581 65.6043 78.683C65.3748 79.0079 65.22 79.3794 65.1509 79.7709C65.0817 80.1624 65.1001 80.5642 65.2045 80.9479Z" fill="#3F3D56"/>
<path d="M169.944 89.3956C173.152 89.3956 175.752 86.7671 175.752 83.5246C175.752 80.2822 173.152 77.6537 169.944 77.6537C166.737 77.6537 164.136 80.2822 164.136 83.5246C164.136 86.7671 166.737 89.3956 169.944 89.3956Z" fill="white"/>
<path d="M174.714 72.8147C174.714 72.8147 175.938 76.4472 172.326 77.9747L171.864 78.7805L174.126 81.0082C174.126 81.0082 176.916 75.9301 176.614 74.1268C176.614 74.1268 176.182 72.2955 174.714 72.8147Z" fill="white"/>
<path d="M170.611 89.3956C173.705 89.3956 176.212 86.8934 176.212 83.8068C176.212 80.7203 173.705 78.2181 170.611 78.2181C167.518 78.2181 165.011 80.7203 165.011 83.8068C165.011 86.8934 167.518 89.3956 170.611 89.3956Z" fill="#09CEF9"/>
<path d="M176.642 74.952L175.752 73.487L174.457 73.3038C174.733 68.48 173.479 67.0429 173.479 67.0429L173.187 67.0149L171.918 66.8921L169.53 64.4188V63.7164C172.885 64.115 174.74 65.705 175.741 67.5686C177.512 70.8391 176.642 74.952 176.642 74.952Z" fill="#09CEF9"/>
<path opacity="0.1" d="M173.198 66.1273V67.015L171.928 66.8922L169.54 64.4188C169.54 64.4188 173.235 65.244 173.198 66.1273Z" fill="black" stroke="#4C4981" stroke-miterlimit="10"/>
<path opacity="0.1" d="M176.642 74.952L175.752 73.487V67.5773C177.512 70.8391 176.642 74.952 176.642 74.952Z" fill="black" stroke="#4C4981" stroke-miterlimit="10"/>
<path d="M160.262 86.1043C161.752 85.2458 161.688 82.3512 160.119 79.639C158.55 76.9268 156.07 75.4241 154.579 76.2826C153.089 77.1411 153.153 80.0357 154.723 82.7479C156.292 85.4601 158.772 86.9628 160.262 86.1043Z" fill="white"/>
<path d="M158.261 80.7195C159.831 83.432 161.757 85.2439 160.267 86.1057C158.777 86.9675 154.438 86.5366 152.868 83.822C151.298 81.1073 152.723 77.3586 154.213 76.4968C155.703 75.635 156.69 78.0006 158.261 80.7195Z" fill="#09CEF9"/>
<path opacity="0.1" d="M172.237 61.1784C172.237 69.8459 166.293 78.1988 157.607 78.1988C153.436 78.1988 149.435 76.5452 146.485 73.6017C143.535 70.6583 141.878 66.6661 141.878 62.5034C141.878 58.3408 143.535 54.3486 146.485 51.4052C149.435 48.4617 153.436 46.8081 157.607 46.8081C166.293 46.8167 172.237 52.5088 172.237 61.1784Z" fill="black"/>
<path d="M157.607 77.7764C166.294 77.7764 173.336 70.7494 173.336 62.0811C173.336 53.4128 166.294 46.3857 157.607 46.3857C148.92 46.3857 141.878 53.4128 141.878 62.0811C141.878 70.7494 148.92 77.7764 157.607 77.7764Z" fill="#FFB9B9"/>
<path d="M156.225 55.1265C158.097 55.8137 159.205 57.7442 160.885 58.8192C163.26 60.3274 166.351 59.9374 169.063 59.192C170.575 58.7805 172.155 58.2785 173.643 58.7352C173.862 58.8319 174.103 58.8662 174.34 58.8343C174.664 58.7417 174.824 58.384 174.93 58.0652C176.769 52.5928 175.942 46.3944 173.166 41.3314C172.449 40.0258 171.589 38.7632 170.406 37.8562C169.474 37.1431 168.377 36.6756 167.271 36.277C165.251 35.553 163.162 35.0382 161.036 34.7408C160.66 34.6728 160.277 34.6604 159.898 34.7042C159.378 34.7883 158.911 35.0683 158.447 35.3182C156.459 36.3817 154.254 36.9793 152 37.0655C148.977 37.1797 145.523 36.4687 143.193 38.4035C140.386 40.7238 141.086 45.2504 139.266 48.4002C138.061 50.4836 135.738 51.996 135.356 54.3681C135.256 55.0931 135.302 55.8307 135.492 56.5377C136.381 60.1873 139.922 63.014 143.696 63.0808C144.276 63.1249 144.856 63.0062 145.372 62.7382C145.709 62.5082 146.008 62.2252 146.255 61.9001C148.727 58.9787 151.555 53.4115 156.225 55.1265Z" fill="#444053"/>
<path opacity="0.1" d="M174.93 56.4774C174.824 56.7963 174.664 57.1539 174.34 57.2466C174.103 57.2785 173.862 57.2442 173.643 57.1475C172.155 56.6907 170.566 57.1927 169.065 57.6042C166.351 58.3497 163.253 58.7483 160.887 57.2315C159.205 56.1543 158.099 54.2152 156.225 53.5387C151.555 51.8151 148.727 57.3909 146.248 60.3124C146.001 60.6375 145.703 60.9205 145.365 61.1505C144.85 61.4185 144.269 61.5372 143.69 61.4931C139.929 61.4263 136.385 58.5996 135.485 54.9499C135.435 54.7345 135.392 54.519 135.36 54.3036C135.36 54.323 135.36 54.3402 135.349 54.3596C135.25 55.0846 135.296 55.8221 135.485 56.5291C136.375 60.1788 139.918 63.0055 143.69 63.0723C144.269 63.1164 144.85 62.9977 145.365 62.7297C145.703 62.4997 146.001 62.2167 146.248 61.8916C148.727 58.9702 151.555 53.403 156.225 55.118C158.099 55.8052 159.205 57.7356 160.887 58.8107C163.262 60.3189 166.351 59.9289 169.065 59.1835C170.577 58.772 172.155 58.27 173.643 58.7267C173.862 58.8234 174.103 58.8577 174.34 58.8258C174.664 58.7332 174.824 58.3755 174.93 58.0567C175.672 55.8175 175.999 53.4625 175.897 51.1063C175.833 52.9336 175.508 54.7424 174.93 56.4774Z" fill="black"/>
</g>
<defs>
<clipPath id="clip0">
<rect width="247" height="133" fill="white"/>
</clipPath>
</defs>
</svg>
